/* XPM */
static char *c7867a2001b94844d27fca59a2e844d0Wdbc0BIQIxjEQ3oF[] = {
/* columns rows colors chars-per-pixel */
"64 64 139 2 ",
"   c #777D4D",
".  c #78794F",
"X  c #7C7E55",
"o  c #7E804E",
"O  c #7E8252",
"+  c #7D8159",
"@  c #838654",
"#  c #868956",
"$  c #8B8C56",
"%  c #83865B",
"&  c #868A5B",
"*  c #8B8D5B",
"=  c #918F57",
"-  c #918F5D",
";  c #8F9056",
":  c #8E915E",
">  c #93935D",
",  c #99975E",
"<  c #96985E",
"1  c #9B9A5E",
"2  c #828661",
"3  c #868C62",
"4  c #8B8E62",
"5  c #878D6B",
"6  c #8A8D69",
"7  c #8D9262",
"8  c #8D9269",
"9  c #949562",
"0  c #999763",
"q  c #969964",
"w  c #9E9D62",
"e  c #989864",
"r  c #999965",
"t  c #989B64",
"y  c #9A9A64",
"u  c #9B9A64",
"i  c #9B9B65",
"p  c #989866",
"a  c #989B66",
"s  c #9A9A66",
"d  c #9B9B67",
"f  c #9D9A65",
"g  c #9C9B65",
"h  c #9E9B64",
"j  c #9D9A67",
"k  c #9E9B66",
"l  c #9A9D64",
"z  c #999E64",
"x  c #9A9F65",
"c  c #9A9D66",
"v  c #9B9E67",
"b  c #9D9C64",
"n  c #9C9D64",
"m  c #9E9D64",
"M  c #9F9D64",
"N  c #9E9D65",
"B  c #9D9E65",
"V  c #9F9E65",
"C  c #9C9C66",
"Z  c #9D9C66",
"A  c #9D9D67",
"S  c #9E9D67",
"D  c #9C9F66",
"F  c #9F9E66",
"G  c #9C9C64",
"H  c #909169",
"J  c #919268",
"K  c #91936B",
"L  c #92936B",
"P  c #93946C",
"I  c #91966E",
"U  c #94966E",
"Y  c #93946A",
"T  c #989769",
"R  c #969A68",
"E  c #979A69",
"W  c #989A68",
"Q  c #989A69",
"!  c #999B69",
"~  c #9A9C6A",
"^  c #9B9D6B",
"/  c #9C9C68",
"(  c #9D9D69",
")  c #9F9E68",
"_  c #9F9F69",
"`  c #9E9C6B",
"'  c #9E9E6A",
"]  c #9F9F6B",
"[  c #989E6E",
"{  c #9F9D6C",
"}  c #9C9E6C",
"|  c #9E9E6C",
" . c #9C9D69",
".. c #8D9371",
"X. c #969B73",
"o. c #A09E61",
"O. c #A09E63",
"+. c #A19F64",
"@. c #A09D66",
"#. c #A09F66",
"$. c #A19E67",
"%. c #A09F67",
"&. c #A39E66",
"*. c #A09F65",
"=. c #A09F69",
"-. c #A09E6B",
";. c #A19F6C",
":. c #A09F69",
">. c #9FA066",
",. c #9FA067",
"<. c #9EA066",
"1. c #9DA16C",
"2. c #9CA272",
"3. c #9FA270",
"4. c #A0A062",
"5. c #A0A064",
"6. c #A1A067",
"7. c #A0A167",
"8. c #A1A166",
"9. c #A1A068",
"0. c #A2A168",
"q. c #A2A169",
"w. c #A1A269",
"e. c #A1A06A",
"r. c #A1A16B",
"t. c #A3A26A",
"y. c #A4A16A",
"u. c #A1A16D",
"i. c #A1A16F",
"p. c #A6A36C",
"a. c #A7A46D",
"s. c #A2A16A",
"d. c #A9A66F",
"f. c #A9A76F",
"g. c #A5A171",
"h. c #A3A672",
"j. c #A8A771",
"k. c #A7AA75",
"l. c #A8AC7A",
/* pixels */
"q # > ;.#.G #.1 / # 0 ;.:., d., 7 : > u Z 6.1 1 U * w 1 u g.0 @.9 4 9 Q :.w 1 o.^ @ u Q ' G a.O.4 - 9 / #.G G @.J $ w 1 Z g.0 #.",
"9 # > ' g G #.o.q @ 9 / :.0 a.0 * ; > u 6.4.4.1 T * < z g { / @.- * - Q #.#.1 o.u   0 / #.g y.0 * * 9 g O.G G #.J & 1 w c ' g G ",
"9 & * Z G w #.O.9 @ - ;./ > :.g * * : 1 Z 6.w O.9 $ ; 6.q -  .z 4 * - u 6.w 1 O.q X q u g 0 g -.* * > G @.G O.@.H & > 6.0 9 ;.0 ",
"9 * > g #.#.w 1 9 & 9 / 9 $ 0 ' < $ > z 6.Z w 1 8 : ; 6.* @ ^ <.9 * 9 u #.6.1 O.9 # 0  .9 $ 9 :.> > > u G O.G @.- 9 = 6.* @ p.G ",
"9 9 0 u :.#.G O.0 q Q Q $ @ & / q < < Z #.@.G G 9 q > c & . R <.q 9 9 u #.#.Z w R > Q E # # & 1.q < < z 4.w G g 9 R < u % . j g ",
"q Q 0 0 q.6.G w 0 ' Q q @ # & q z q < w #.O.G G 9 u > > & X : <.R q u u :.#.#.G R u ' 9 O : O 1.c 9 1 z 4.4.G g 9 u < : % X * c ",
"q ~ q 9 y.6.u O.9 u.9 7 # 7 & 7 c < > G #.g G G - ' u # 4 4 % 7 R q u u :.&.#.G 9  .R : # R + 7 z < < 1 4.<.w g 9 0 < & 8 3 @ t ",
"9 Q 9 > q.q.1 O.> ;.9 * & [ 7 & < < 1 u #.@.O.O.* / q @ L X.O ; < > 9 0 Z :.#.g < <.7 * & 2.: & u < > 1 w 4.w g 9 9 < @ I 8   R ",
"U * * ' w G O.1 7 7 7 * q g 9 - T % 9 g.u w 8.1 7 * R # : k.- # R * 9 :.#.G @.O.9 : * 7 R t R * Q @ 0 u.1 8.1 o.9 & t $ : 2.: & ",
"9 & > ' Z w O.o.9 : * q Q 9 9 0 9 @ * u.1 u 8.1 7 & R : 9 q.* 9 9 & > ' G G O.O.7 * : R R R 7 z T X q :.1 6.o.1 9 @ t : < 1.# q ",
"9 # > g Z w 4.O.9 * * u f > > #.9 # > ' u G 6.1 q O 9 R R 9 $ #.* # - ' #.G G O.9 * : R R ; > 1.9 O 9 ' u Z O.o.7 # 9 u q q * 1.",
"9 & > Z Z #.6.1 9 7 7 9 0 > > 0 9 & 9 ' w w 6.1 7 # 9 q u > $ O.: $ > Z G G O.G 7 : 9 9 < ; > z q & > Z G O.O.1 * & < > > > * R ",
"q > 9 Z Z #.O.1 q 0 > - 0 g 0 = q 9 9 u g #.O.G q ; 7 q , u > > 9 > < ,.w w #.1 9 0 q > > 0 1 > q 9 9 g #.Z #.G > > u ; > <.< 7 ",
"u 9 1 6.w Z 4.1 0 / u > 0 y.#.= z q 0 u :.#.#.G q <.q : 0 #.G > < < 1 <.w Z #., q ' g > > :.w > q Q 9 g q.g :.G 9 c u < < <.<.: ",
"<.< u z 1 w &.1 q u 0 0 f &.&.0 R R 0 u :.:.g Z q u < q G #.#., <.< z w z w 6.G 0 f f 0 g y.Z > q  .> g u.G &.G 0 g , u Z Z 1.0 ",
"<.< < 1 1 O.6.0 9 9 0 f @.o.&.&.< u > > :.q.w O.q u > q G G #.w z < 1 z 1 w 6.G 0 9 0 g #.Z w w : Z > 0 q.g y.g 0 0 > w 6.1 Z ' ",
"9 : > w 1 6.0.O.9 7 9 / ;.Z G O.9 * T 0 g.u w , 7 * > c 6.1 1 1 9 : > z 1 O.0.#.q 7 9 ' &.G G O.R * Q 9 q.G 0.o.- 9 9 / :.#.G o.",
"8 * > Z w 1 G G 9 * * g #.O.G #.T * q 0 j.w &.O.7 ; > Z 6.w 1 O.H * 0 ,.1 1 O.w 9 * - u q.O.G O.9 & 0 u :.u 0.1 9 4 9 Q #.@.w o.",
": * < ,.0 > u g 7 * : u :.w #.O.9 # 4 9 u., 1 #.: ; > 1 q.w w 4.4 & 0 q.G > 1 Z * * - u #.Z G O.* # q ' ' > w Z 4 - q u #.O.1 o.",
": $ 9 ' > $ q ;.< > > < #.Z w #.9 # - 0 u * > ' > : > u Z Z w 6.* $ 0 :.> $ 9 u.9 : > u #.#.G #.9 & 9 { u * 9 ' 9 * 9 u :.#.1 o.",
"> > 9 T $ # H ~ q < < z #.#.O.G < < 9  .9 # * | < < > z @.G G G > - 9 Q * @ 7 } u < < u #.#.Z O.9 - < E * & : E < : > w #.#.w w ",
"6.9 9 9 % # 4 H <.<.< z @.#.g @.> q R R & # & X.z < u z @.O.G O.' 0 q 9 & @ 4 7 c z 1 z #.#.#.w u 0 9 q # & 7 Y 9 < 1 z #.#.1 w ",
"6.z q 4 % 3 4 % 1 < 1 u G #.#.O.> u 9 q @ * & 7 z q u G G g G 0 Z g T 4 % 2 7 & z < < z O.#.#.G , u q q # 4 7 7 z q 1 Z 6.Z O.O.",
"u 1 9 4 % 8 8 2 < < < 1 G #.#.@.> Z 9 R & 8 4 6 1 q 1 G G @.g 0 u 9 q 4 2 7 8 & < < < 1 O.6.#.O.> Z q R @ 8 7 2 <.< z w O.w O.4.",
"7 7 : & 9 h. .$ c $ > 6.#.1 #.G R * q * & 1.R O z : < u q.Z G @.: 7 : * R 1.1.# c @ > a.w 1 6.G 7 $ 1.& @ h.9 @ t * < 1.w 1 #.1 ",
": : > 7 q u R 9 q # > ,.g 1 #.O.9 & 7 q : R R 7 < * : u &.G G #.: 7 > 7 7 <.t t 1 @ ; t.1 z 6.G q O 1.7 : 1.9 7 9 $ < <.z G O.G ",
"* * q 1.q > > #.< $ ; w G G #.#.< @ q t q < < u.< * > q :.g G @.: : 7 R > * q 1.< # : 6.u u 6.w > O q t 7 t > 1.: $ : <.G w 4.O.",
"& : 7 q > > > 0 < : > c #.G G #.: @ < t 9 : : 1.: * > u :.@.G @.* : q q q ; > q z $ > ,.w u 6.w < # q z : q > ' : : > 1 Z #.O.O.",
"> 7 9 < 9 u , $ t q > w q.Z w #.q : > > 0 0 * , R < 9 u 1.O.G G * < > 9 u u < $ c < < Z #.G g O.< : q : 9 u > > q 9 > z #.#.w O.",
"R <.7 < c q.G = c c > u t.6.1 6.q u u > u :.> > R 9 u Z :.#.G G q R q 0 c y.1 $ ,.q 9 c #.O.G O.<  .> > 9 ' 9 > q c u 1 6.#.1 O.",
"<.t < u #.:.g G c <.q < t.4.1 6.> Z g > Z p.> Z R q u u Z Z w , u R 0 g #.#.O.G c c 9 u :.#.G #.> q.u > :.q.g > 9 c u > #.#.1 w ",
"R : <  .:.1 G y.q c < > t.6.> y.> G u > :.u.9 a.q q 9 u Z 6.Z , g 9 > #.#., 0 d.u c > , #.O.G #.= #.> 0 p.:.g c < 1.> > #.w , w ",
"9 9 z 6.1 1 4.4.X.- T > q., O.O.q 4 > Q q.w 1 o.& 9 9 9 #.4.1 1 4 9 9 Z w 1 1 4.U 4 u 0 ;., 0.o.H - 9 / 6.#.w 1 H q 1 1 Z :.#.O.",
"4 * 9 0.w 1 4.O.T * 9 9 a.1 O.w 9 4 - Q 6.w 1 o.9 9 9 u #.4.4.1 4 * 0 #.6.1 1 4.T & q 0 q.u 6.1 9 * 9 0 6.Z 1 1 L * < w Z ' #.o.",
"& & > 6.4.1 O.w 9 & - q h.0 z Z 9 4 > u #.Z 1 O.q $ - g 0 , ,.u & * 9 #.4.4.1 4.9 # > ' u.0 Z G 9 4 9 0 6.w 1 o.L # > 6.g T #.w ",
"* $ q 6.4.4.O.G 9 $ > Q / > q 1.9 * > u #.w w 1 9 @ > Z - * Z  .& $ > O.6.w 1 w q # 9 } u : 9 :.> * 9 0 #.O.<.1 H # > Z 9 * u #.",
"T : q #.w w 6.w 0 9 9  .7 # * 1.9 < > u w Z w O.q $ T i.& # t ^ 9 : < 1 w w w Z q > 9  .: # 7 1.9 : > 1 Z w 1 O.R * < t & % - ;.",
"~ 9 1 ,.w w 6.Z 0 u R Q * O & R 9 > > < w #.4.w 9 > Q ~ & O 7 Y  .R 1 z 4.w #.#.u 9 9  .@ + & E q < < w #.Z w O.9 < < 9 3 X & u.",
" .< u w w #.#.#.> c 9 R O : + 8 z < 1 z w 6.O.1 9 q T 9 + O & 6 c q u w #.O.#.:.1 u 9 R @ & : 7 u < < z 6.#.1 1 > 6.< * 8 % % R ",
"R < < ,.O.#.:.g < u > 9 & 7 3 3 z z u 1 Z O.O.G > u 9 * : 6 3 8 R < > 1 w #.g @.> R < R O 7 3 3 z < < <.6.w w w > t.< # I 5 O R ",
"7 4 T ;./ G O.O.7 * 7 * & 1.1.O  .$ > ' G G #.1 9 * [ @ & h.& @ 8 4 T :.g G #.#.* 9 : @ : 1.t @ ^ # 9 p.G w y.1 R o 3.& # l.& @ ",
"4 & 9 ;.-.g O.O.q * > R : q <.: R & > Z G Z #.1 Y & E : 8 3.* 9 4 & 9 :.O.w #.O.9 : : 7 q R R 7 q # > q.G w a.1 R # E 9 : ^ 7 : ",
"& & 9 / #.g #.G q & - ' q : < <.9 # * g G O.0.O.9 @ 9 q R 9 * 3.2 # 9 :.#.Z O.G 7 ; : 1.R : < ' 9 # - Z u G y.O.9 & : 1.R : q R ",
"* * 9 -.g #.O.1 9 * 4 / q ; : t 9 * > u #.#.#.O.- # - q q < * ^ 4 $ 9 :.@.O.@.0 9 ; : t R * * Q 9 # > G G G #.O.: * : Q q * : R ",
"9 : 9 ' #.G #.G 9 9 > > 1 > > ; 9 9 9 u #.#.Z O.9 * 9 9 9 0 - > 9 - > ,.w w #.G 9 < > 9 0 > > > 9 7 9 u #.Z #.1 9 $ 0 - > ' $ 9 ",
"c > u 6.g #.#., 9 / 9 - u ,.< > 9 Q 9 u :.#.G #.0 0 0 > 0 ' 0 - } 9 < w 1 Z #.g 9 q > < 0 :.u > T 9 q u #.#.G 1 0 > ' $ 9 g.> 9 ",
"1.< , Z G O.#.O.0 @.u > Z q.u 0 9 Q 0 0 6.#.1 O.0 f 9 0 g / -.- 1.9 > <.w w 6.g u u u 9 g q.:., 9 u 0 0 y.#.G G 0 / 9 - :.;.0 0 ",
",.> > G G O.#.G 9 g > > q.q.1 q.: Q u > 6.#., O.0 f > g :.g #.G ' < < w <.O.6.u > , > u Z :.' Z 9 Q q 0 #.&.1 G - p.$ 0 p.0 q.g ",
"7 7 < q c Z w 1 q > > u :.w u O.J & 9 / f G &.o.- & - #.O.1 G , 8 & < 1 1 t.0.1 q * > ' y.G , O.H & > Z 1 1 0.O.* * > 0 Z w w w ",
"3 7 < <. .u u <.9 * > u Z w w O.~ & 9 -.g G #.0 9 & > Z #.G G G 7 @ <.<.9 Z <.1 9 * > u q.O.G O.U * > <.w 1 6.w - * > u Z Z G w ",
"& & > <.t 9 <.<.9 * * u Z w w #.q # *  .g 0 G g 9 $ - Z #.G @.f 3 & q <.9 9 q ,.* & - u #.#.O.#.T $ $ w w , G Z * * 9 u #.G G O.",
"7 * < z 7 & : 1.7 : > u #.#.#.O.> # * Q 0 * > :.7 * > Z g #.#.f 4 & z u 4 * : 1.9 - > u #.#.#.O.* # & u 0 * > u.> * > u #.#.w O.",
"7 9 : < % + : 1.9 9 9 u #.#.#.O.* $ : 9 7 @ & 1.9 * > w w ,.:./ 7 > q : % % & 1.9 9 9 u #.#.#.O.- * 4 q 9 @ & } 9 : > u Z Z O.O.",
"R 9 < * + + + q q q 0 g #.#.#.G < u u 9 : O & R 9 > > w w Z ;.j q q q # 2 3 % R E q q u #.#.G 1 > u T 9 4 + % E 9 9 9 g #.w Z O.",
"R q < & 2 2 3 : q 9 9 G Z #.O.1 < ,.q : : @ + 8 R < < w w #.u.0 9 q q @ + 5 + 7 T q q 0 g #.@.1 > :.R 4 4 % & 8 q 9 9 g O.G w O.",
"q R < % 2 5 5 + 9 9 0 0 G #.O.G > Z : @ : 3 3 7 c 9 q z u Z :.0 9 z q O 3 ..2 % q q 9 0 G @.O., ; Z 9 # 4 3 3 7 T 9 0 g G G G O.",
"% 7 4 @ 4 } T # Y * - } :.g O.G 4 * ~ & * h.& @ 9 4 9 / ;.g 0 O.: & : O R R ^ # q & - ;.:.G G O.8 @ R & 7 2.& $ 9 : > w 6.w w 6.",
"& 7 4 7 9 T q 9 9 & - ' ' g #.O.4 @ T * 7 1.: q - * * / &.#.G #.3 & 8 ; E 9 Q 9 9 & J -.:.G O.0 7 @ 8 7 7 1.; R : * > z 6.w 1 6.",
"4 & 4 0 q * 9 / 7 & - Q g g #.@.9 @ 9 J 9 R $ 3.4 * * g ;.Z G #.& & R q R $ 9 1.7 & : Z g g #.O.: @ 9 9 9 R * q.; & > ,.q.w 1 O.",
": * 4 q q - > g 9 * 9 u g @.#.G 4 @ 9 9 7 : ; 1.9 : 9 u :.#.G w * ; R 7 < - > u 9 * < Z g #.#.G : # 9 9 : 9 : c : : > w 6.,.w w ",
"7 7 9 < 9 > , > z > 9 Z #.#.#.G 9 - 9 9 > 9 > > q 9 9 u ,.#.w w : q 9 9 > Z u $ z : < Z @.@.#.O.9 9 0 9 > u > > 9 < > 1 Z O.w 4.",
"9 t R > 0 q.Z > z > u w G #.&.0 0 T T 0 u Z u < T R u u 6.6.w w q Z < > > d.O.; z < q ,.g @.#.0 0 Q 0 9 q ' u - c R u q w Z w O.",
"q Z u > G q.6.< 1 < 1 z G :.y.G 0 j 0 g Z :.:.> q q 9 u 6.4.4.o.< Z > w 1 d.O.1 1 < u G G #.:.0 T j q f ' Z Z > R q u 1 Z w w w ",
"> > q u w 6.4.<.< : , u G :.&.G - 9 9 / :.Z 4.u q q > u w 6.4.1 > q < q.u #.1 0.< < > G G #.&.0 0 9 - / q.w Z Z : < , z Z 6.O.1 "
};
