/* XPM */
static char *_5dfcf922a0543d3abb26941cee48b08g6N1hT5mGH0DrHKK[] = {
/* columns rows colors chars-per-pixel */
"64 64 161 2 ",
"   c #161A03",
".  c #12140A",
"X  c #1B1D09",
"o  c #1D1D13",
"O  c #1D210B",
"+  c #1E2012",
"@  c #21250E",
"#  c #25290E",
"$  c #232611",
"%  c #252913",
"&  c #292D16",
"*  c #25271A",
"=  c #27291B",
"-  c #2B2E19",
";  c #2C3017",
":  c #2E311B",
">  c #31351E",
",  c #363A1F",
"<  c #3A3F1F",
"1  c #333621",
"2  c #353923",
"3  c #393D26",
"4  c #35362A",
"5  c #3B3E29",
"6  c #3D3A33",
"7  c #413F30",
"8  c #3D4126",
"9  c #3E422B",
"0  c #3F4431",
"q  c #41452E",
"w  c #45492E",
"e  c #494E2F",
"r  c #434631",
"t  c #464933",
"y  c #494D35",
"u  c #494738",
"i  c #4B4E39",
"p  c #4D5136",
"a  c #4E523B",
"s  c #4F5839",
"d  c #51553D",
"f  c #54593E",
"g  c #4C4C40",
"h  c #514F43",
"j  c #4F5241",
"k  c #535641",
"l  c #555845",
"z  c #565944",
"x  c #575B44",
"c  c #575A45",
"v  c #565946",
"b  c #575A47",
"n  c #565A43",
"m  c #585C43",
"M  c #585B46",
"N  c #595D44",
"B  c #585C45",
"V  c #5A5E45",
"C  c #595D46",
"Z  c #595C47",
"A  c #5B5F46",
"S  c #5A5E47",
"D  c #595D45",
"F  c #59574B",
"G  c #56584A",
"H  c #5A5D48",
"J  c #5B5F48",
"K  c #5B5E49",
"L  c #5A5D4A",
"P  c #5B5E4B",
"I  c #5C5F4A",
"U  c #5C5F4C",
"Y  c #5B5E49",
"T  c #5F5D51",
"R  c #5D6146",
"E  c #5D6148",
"W  c #5C6049",
"Q  c #5E6249",
"!  c #5D614A",
"~  c #5D604B",
"^  c #5F634A",
"/  c #5E624B",
"(  c #5D604D",
")  c #5E614C",
"_  c #5F634C",
"`  c #5F624D",
"'  c #5E614E",
"]  c #5F624F",
"[  c #5E624A",
"{  c #5F6849",
"}  c #60644B",
"|  c #60634E",
" . c #60644D",
".. c #61654E",
"X. c #61644F",
"o. c #62664F",
"O. c #63674E",
"+. c #61654C",
"@. c #65694E",
"#. c #606350",
"$. c #616451",
"%. c #626550",
"&. c #636750",
"*. c #636651",
"=. c #626552",
"-. c #636653",
";. c #646752",
":. c #646754",
">. c #636651",
",. c #686753",
"<. c #656950",
"1. c #646851",
"2. c #656952",
"3. c #656853",
"4. c #666A53",
"5. c #676B52",
"6. c #666954",
"7. c #676B54",
"8. c #676A55",
"9. c #666956",
"0. c #676A57",
"q. c #666952",
"w. c #686C53",
"e. c #686B56",
"r. c #686C55",
"t. c #696D56",
"y. c #696C57",
"u. c #6A6E57",
"i. c #6B6F56",
"p. c #696D54",
"a. c #666759",
"s. c #6B6E59",
"d. c #6B6E5B",
"f. c #6C6F5C",
"g. c #6A6D59",
"h. c #6D7156",
"j. c #6C7059",
"k. c #6E7259",
"l. c #6D715A",
"z. c #6E725B",
"x. c #6F725D",
"c. c #6E715E",
"v. c #6F725F",
"b. c #6D715A",
"n. c #70735E",
"m. c #70745D",
"M. c #71755F",
"N. c #71755C",
"B. c #75795E",
"V. c #707360",
"C. c #727460",
"Z. c #747861",
"A. c #767962",
"S. c #797C67",
"D. c #7A7E65",
"F. c #7E7C70",
"G. c #7E8267",
"H. c #7E8269",
"J. c #81856B",
"K. c #858972",
"L. c #99978A",
/* pixels */
"1 ; 8 d n R W a + 8 : 8 C n W W 5 - % 3 d L D z d $ 1 - 7 d =.k  .3 1 = > a k I k I & 3 $ 2 =.l d -.q = - - u *.n L k 1 1 $ 5 n ",
"q 1 3 i C j.b./ > t 3 0 k R 7...r r 5 5 r L ;.;.L > q 2 r i  .;.=.r q 5 5 d f T ;.I - i 3 2 D L -.,.9 3 r 3 y ~ *.*.J 5 r 2 r i ",
"n y t a W j.j.f 8 y t a a / Z._ 3 i d r r I d.d.k 2 i u i a  .M.U 7 y i u d k e.M.k = J i q k I S.;.3 r n t i n c.9.n 2 a u d y ",
"a t t a a _ n 2 : 8 t a y n j.t $ 5 i t y l  . .7 & r r k y k -.a : 3 r q i a  .;.q O a u q i k d.k - 5 i u i t 9.^ t $ 9 r d u ",
"t t a n R 4.&.a 8 t a C k ! m.s 5 q u k C L ..0.i 2 i u I k n d.I 3 q y i D D -.;.d 1 d t k C l e.} r r u a / a 9.*.k > t y n L ",
"p 9 t a a C o.R t t 9 p a k 7.n k t 9 i a j v ..D y y 2 i d k ;. .q u r r k k l U l r u 5 k k a I  .d u 9 t I u n J J u k r u a ",
"a 1 1 9 t 0 t 9 0 0 & > t 9 t t t 0 1 > 5 t y t r q r $ q 7 5 i u 5 r 2 1 r r q t r 5 r & 0 9 r y u q y 1 - y 5 r r i 9 i : 1 9 ",
"t.y p &.7._ n a { { 0 k j.C k W k ~ L a n 9.7.n i I e.r  .=.n I J D e.k u  . .I I n J -.t J L 7.U d z M.n t =./ =.n I n 9.y k 9.",
"f y w f R V d d d V 9 y m m @.w a R a t W W k / y C n t a n C V n r / a 9 C R L C y n _ p p W W C C a a ! 9 W n k o.i i J a y n ",
"} y 9 y V V d y } ^ q y m V <.p a ! a 8 y n n n t W n 9 t n C k k t *.d 2 a k R n t n W t 0 n n n a a C { 1 a n J ^ a V &.a t n ",
"h.m y d <.i.} f <.^ w y n ^ <.f ! h.R 0 j 7.7._ n j.7.a t _ 7./ V V m./ t n W 7.{ ! 7.&.a a ~ &.&.W _ 7.j.9 n 7.*.V k o.7.a t V ",
"p y q y f m f p a p w y d n m d a a t 9 y R n k p a p t 0 n R a a i d y 9 p j C n a a a t t a C C a a a n 3 a C V a d a a t 9 n ",
"& < t y y y y p ; > w p d d y p 9 : > t a a p t a : : 9 t a a t i 9 : : t a a a y t 3 : 9 t y a a t t : 3 9 f t a t k 3 ; r t p ",
"# q m } V m R } # & y m m R p f t ; 2 R 4.W C n _ : : a J J _ n W a & 1 V _ ..C C j 8 : t R L _ W n n % 3 n &.C C a _ : % a a n ",
"# 2 p m m R R f ; & y f } <.f ^ 0 % : a R W W a _ % % t a n *.n n a O ; n n W ^ n a 1 % 9 k n { W a a O : a C C 7.s 4.8 + y a W ",
"& , q d } w.R p > @ 3 t m @.a m t : > t a W &.a _ : : w r n s.n a n @ ; a a W 4.a C 3 % 8 a n 7.! y n % : 9 a ~ y.t _ 8 O 8 9 C ",
"> , 9 C b.o.C o.; : > p 4.&.W ..0 > = 9 / c.=.k =.2 1 - r V.a./ J a = > u L f.;.U U 5 - 3 r =.V.W l j : > 1 L d.] =./ 4 - 1 9 9.",
"; > 3 d 7.o.W j.2 2 2 p &.o.W &.i 5 > 5 j =.=.T T 5 5 2 r -.] L ] G 2 1 5 u -.;.=.-.0 1 4 5 J a.9.L v > 1 1 G =.] *.*.r 1 4 9 L ",
"1 > > 9 a w 9 a 1 1 : 3 a t 9 t 0 2 : : 5 t i i i 2 2 > > t t r t i 1 : - 1 i y r i 2 : 2 1 r y y t y - > - q t t r a 5 : 1 > r ",
"f d y a n t 9 a a a t i n a w a a a i a a d t q m y y y u a k t 0 k t a y y m a 5 k y i d i f a 0 t l y n t d y i r n a t a t k ",
"C C n _ &.n a _ W W n J *.n t a ^ V n ^ &._ a 9 @.V m V V  .} y i ^ n V } } @.d 9 } V V } ^ o.I t a o.n o.n } V n w R } k W W _ ",
"a a a J W t t V a a a n ^ a q y m p y s W V p 9 f d y f V V m < a R p a f f } w 9 R d i s d R m w t m e f p R m d 2 f f y d f n ",
"W W / _ ^ a t V J J n ^ <.n y d @.V f f } } f w } } d @.@.V } 8 f @.n f f R @.p w @.R m f R o.R w a o.f R f +.@.f 8 R 5.f m { ^ ",
"_ _ / _ W t t _ &.&./ o.*.k t a @.} } @.@.R p 8 } @.f @.@.m } 7 p @.} ^ } } @.p 2 } @.} @.} +.n 8 p h.+.4.f @.} d , } N.V } @.@.",
"0 a i i u 9 u r t i r j i 5 i u d q r i q u i 5 l 3 u t q k i r y t 3 l 7 u i t 2 l u u k u t i r u l 3 u a a r y y r r u u r k ",
"9 d y G m  .s.*.t j u n V D y.=.i 9 i k f m c.*.*.r i a k Z l =.9.y q V i k d =. .<.r q k a n W *.I n r a u n y  .s.I y i d k n ",
"w { t o.f B.B.w.w f a n } i.D.B.f w I i V f D.A.@.p i d R V m J.D.y t V p ^ a Z.J.h.w w n f R o.H.z.d p { t o.d Z.J.i.y y m V n ",
"q R 2 f w p.} p 8 d w w p V h.R y w V 8 f q @.@.y e y t s y w B.} < y s 8 m 8 @.5.f 3 y f w y p h.} 2 w V , m e 5.p.f w y s y t ",
"f 5.q R p N.} d f @.n d f R 5.d d p @.y @.y w.p.w R w.d f m d N.m w @.} y w.p @.V f p @.R y f f w.} q f t.8 } p w.R p d @.} d R ",
"V @.t ^ f w.m y R o.k n n f  .i f m ^ y @.d ^ o.t m <.d d } D <.d p } I w 5.f R n d d } m y ^ n @.} d R <.r } m @.f y f @.f s } ",
"q 5 - u a i r 5 1 2 : 9 y y k y 3 7 1 > i y r y q 1 5 1 > i i a y 5 1 5 - t y i a 0 2 y y a G 2 y r t 2 9 : u a d u 7 3 2 > > y ",
"2 1 1 k e./ y.-.1 2 1 i / / c.d.2 5 : 2 D y.T d.;.1 1 3 r / 9.;.d.i % 0 2 u U -.c.n u =.f.S.A.9 i r a 1 2 1 i *.*.c.U r > > 7 L ",
"t t t t n j.u.a 1 a a t a W b.R 3 t s t 8 n j.j.a 3 y 8 i t n Z.*.1 0 S 0 0 { =.=.D 3 M.,.+.V 7 w u w 7 a 8 k C &.<.V 1 t t p r ",
"a p a d n u.&.t > a y y a W j.W > 9 j a a R &._ t > y t n a C b.W 2 0 0 0 k b 0.=.d = ;.,.| T 7 f V e 7 k q n a 9.&.n 1 y a n a ",
"t t y a s / R 0 > 0 8 y n k _ n : 3 t a a l n C 9 : t 8 a a n &.j 8 8 0 0 j j { U i > s.C.,.f.d t N p , y q f t o.W a ; t t a a ",
"f t j W ^ 9.4.n y a t C _ C 9._ s a t a W W ! j._ y C 9 n C _ 7.{ j 0 j x ! j :.=.G 0 d.,.7 u 4 u ,.+.r k a <.k t.<._ t n a n W ",
"8 : 1 8 8 t t 9 9 3 & 8 9 8 t t t 9 : : 9 9 9 a y 2 0 & 3 8 0 t 0 8 8 ; 8 0 8 0 l j u a.F 1 F -.> R } 3 3 - t 3 9 t a 2 9 & 1 w ",
"..a t n k n C a R n 0 a C d _ C n W a t W W a ! a a { t n C R C N s n s 0 { k W a u g a.T 6 F.L.2 5.A.k d q I D a n W s ! w y W ",
"4.y t C L C n a C C t a C C _ a a o.a t W _ a W a a &.t n C W n s 0 { s 0 W { b =.l k T h . g G O k e.d d 9 J I C a C a &.t a C ",
"o.t 0 L { ! n a k n t p C W &.y t 9.a 8 C _ n _ a a &.9 t a W W s e { s 8 j { k L u u T T o 6 4 - k 5.z D q k n 7.n k a &.t t a ",
"u.f 9 a u.o.n W 4.R t t n &._ k R 7.R 8 j &.a &.n _ o.a 9 C y.R s { { w.< e { R f f e @.g + . . + C a { C 3 W _ o.C C n o.C 3 a ",
"! n y a &._ s C ! R n a C &./ d C W C t n &.n &.C C n a t n &.W s { e { e s R R R f y V G 4 4 6 & t 3 y a 8 a a _ C / n C n t W ",
"1 9 w t a t 0 t 2 9 9 0 t a t 0 q > 9 0 t a t t y 1 > 9 w t a t 0 e # 8 w e e e w y q k L 4 * * 3 3 & : t t y a t t a 9 > 9 t a ",
"% 0 f n V n n V % 1 w a n C n s t O 8 a a R n a V > : a n a f C f s # 8 s f s N p f y T d.r = + j 3 % X 3 n a W n t C 8 & t n n ",
"O w C W &._ / &.% > t C _ _ W W a O 3 L C &._ n o.1 & a / J I o.R n + 0 f R N w.V } 8 y 5.d 6 r n 9 & X , a f 9.&.n W 9 & a R n ",
"O 1 t f / C a n % ; 3 p C C n n t   : y a / W a n & O 3 a n V l a y O > 8 s f ^ p f > q ;.a 9 u y t & % 2 0 s / { n k : O 9 y a ",
": 1 9 C j.o.n W 2 : 3 a { 9._ W s % > t n b.&.C J 2 & 1 y o.t.I W j * 2 > f 4.{ f @.w y V.I y l n R : & 2 2 n W 9.&.W 3 : 8 0 { ",
"> : 1 n z.j.W *.1 : : t _ s.&._ j : > 8 a h.&.C V 9 ; ; r <.m.U $.j - 2 : C N.{ } w.< < @.I l M.7.z.: & 1 : o.7.~ &.~ 3 > 1 3 7.",
"> 3 3 9 d l d n 4 2 1 5 k k a n 9 2 > 2 r g k k i r 2 1 3 r k n L i 4 2 2 5 u k L i 2 - r l ^ ,.y.l u : 2 - u i l j k 5 2 1 1 k ",
"9 0 9 0 i t 5 u r r 5 q i u r t y w 5 r i i r 3 i t r 5 y y u q u r q q r r y y 5 i y q r r d } y 0 y 9 y 5 y i t 9 y y 5 r 5 u ",
"n f n V R y t V R R n f } f y i } m f m *.^ a 8 } m k m } } d y p m N f D } } f q V @.d d m f } w y _ C @.f } V k q V } f R V V ",
"d d a R } w w } d f d f } d y y } f p d V R p q } f y d V R d w p m f p d V } p w V f y d } } d w p { a V y f f f 3 f R w f R m ",
"f d f } R e w @.f m f m } f e p o.m d f R V s q } f d f R } f w d R V s f R V p w V V p N ,.} d w p } d f s V m f 2 V ^ t f } R ",
"R } o.o.o.y y I } @.} o.@.f y d <.*.} @.5.} d 9 @.} R o.t.@.f y f } @.}  .;.} d 3 } p.}  .+.V } w a <.m @.R t.o.d w ;.y.m } } @.",
"y d d d d t r d a d d k D i q y a a a k k d t 9 d d i a n k i r i i a d k k a i 5 a z d a i i d 9 t l r d a L i y q k k a k y D ",
"9 i i g n l k U 5 y u g L l i J i u u y i d k V d i u u i k n G D i r u i i k L U l w 7 k l a f n l G 5 u t l t U a i r i a u l ",
"9 o.a 7.a H.D._ r d C C a *.K.t.R w } w ^ f J.k.h.q f f ^ f 5.N.B.f w @.w @.f B.B.N.w f f f f } B.B.f q @.s n R w.J.@.p p f p } ",
"9 n 3 C t z.j.n 9 y i k t V Z.^ w 8 n 8 f e k.@.f 2 p w p w R N.@.y q V > f p p.w.{ 2 d e p s d B.@.w 8 } q y p w.k.f q y p e f ",
"W / 8 W y j.&.a k n a V n V b.J p f <.t R a <.b.p e o.p f p C Z.f d f @.7 V s w.<.m t <.p d V d B.R y d w.w d a w.t.f y } f p } ",
"7._ t &.a _ W t / ^ a J W n _ k n o.4.t o.d V <.y n j.p o.n k &.i d I ;.w } f } o.a y z.d d } d @.d d } w.y ^ a V V n d i.n p } ",
"t t 8 n a a j 9 q t 2 t a a k a 9 t r 1 a i y k q t y ; a a t a i 9 r u 2 f i k n t 2 n 2 q n u f y y r u 2 n y a a a 3 m 3 5 f ",
"> 1 > a s L &.a & 3 : 8 n C _ V : 2 1 2 i n J / a 3 5 $ t k n J / 9 2 2 > y d ~ *.i - 0 - 9 n l  .I y - 2 > k j J L a & r & 5 d ",
"9 0 9 a W 7.M.k & t 9 9 W <.j.9.9 5 r u k =.c.d.L 5 i 5 u G a.V.s.r r 0 r i D y.d.L 1 r 5 i L -.V.y.t 2 a 3 j L s.9.T = a 2 u l ",
"f a 0 y R 4.j.t > R t 9 C _ _ C u 0 i j r l 9.] g > k t t t / a.U 2 t i g i h =.T L 1 i i j i l y.=.5 4 -.0 r l ] ] L - L r j u "
};
